<svg width="100%" height="100%" viewBox="0 0 413 896" fill="none" xmlns="http://www.w3.org/2000/svg" preserveAspectRatio="none">
<g clip-path="url(#clip0)">
<path d="M0 896L413 896L413 0L0 0L0 896Z" fill="#266328"/>
<g filter="url(#filter0_f)">
<path d="M105.176 -96.0001C35.4314 -96.0001 -21.1077 -12.4774 -21.1077 90.553C-21.1077 193.584 35.4314 277.106 105.176 277.106C174.921 277.106 231.46 193.584 231.46 90.553C231.46 -12.4774 174.921 -96.0001 105.176 -96.0001Z" fill="#EDEDED"/>
<path d="M9.85432 293.038C-59.8903 293.038 -116.429 376.561 -116.429 479.591C-116.429 582.622 -59.8903 666.144 9.85432 666.144C79.599 666.144 136.138 582.622 136.138 479.591C136.138 376.561 79.599 293.038 9.85432 293.038Z" fill="#285829"/>
<path d="M120.831 342.888C51.0864 342.888 -5.45284 426.411 -5.45284 529.441C-5.45284 632.472 51.0864 715.994 120.831 715.994C190.576 715.994 247.115 632.472 247.115 529.441C247.115 426.411 190.576 342.888 120.831 342.888Z" fill="#EDEDED"/>
<path d="M10.5501 -87.7773C-59.1945 -87.7773 -115.734 -4.25458 -115.734 98.7759C-115.734 201.806 -59.1945 285.329 10.5501 285.329C80.2947 285.329 136.834 201.806 136.834 98.7759C136.834 -4.25458 80.2947 -87.7773 10.5501 -87.7773Z" fill="#EDEDED"/>
<path d="M19.9432 388.627C-49.8015 388.627 -106.341 472.15 -106.341 575.18C-106.341 678.211 -49.8015 761.733 19.9432 761.733C89.6878 761.733 146.227 678.211 146.227 575.18C146.227 472.15 89.6878 388.627 19.9432 388.627Z" fill="#285829"/>
<path d="M-19.7162 46.3561C-89.4608 46.3561 -146 129.879 -146 232.909C-146 335.94 -89.4608 419.462 -19.7162 419.462C50.0284 419.462 106.568 335.94 106.568 232.909C106.568 129.879 50.0284 46.3561 -19.7162 46.3561Z" fill="#EDEDED"/>
</g>
</g>
<defs>
<filter id="filter0_f" x="-472" y="-422" width="1045.11" height="1509.73" filterUnits="userSpaceOnUse" color-interpolation-filters="sRGB">
<feFlood flood-opacity="0" result="BackgroundImageFix"/>
<feBlend mode="normal" in="SourceGraphic" in2="BackgroundImageFix" result="shape"/>
<feGaussianBlur stdDeviation="163" result="effect1_foregroundBlur"/>
</filter>
<clipPath id="clip0">
<rect width="413" height="896" fill="white" transform="translate(413 896) rotate(180)"/>
</clipPath>
</defs>
</svg>